<mxfile host="app.diagrams.net" modified="2024-06-01T05:53:45.603Z" agent="Mozilla/5.0 (X11; Ubuntu; Linux x86_64; rv:123.0) Gecko/20100101 Firefox/123.0" etag="CWOON--gWet8OSdsRp5t" version="24.4.13" type="github">
  <diagram name="第 1 页" id="QpsTiPk9WtC-hpimfkvk">
    <mxGraphModel dx="1687" dy="967" grid="1" gridSize="10" guides="1" tooltips="1" connect="1" arrows="1" fold="1" page="1" pageScale="1" pageWidth="827" pageHeight="1169" math="0" shadow="0">
      <root>
        <mxCell id="0" />
        <mxCell id="1" parent="0" />
        <mxCell id="pF8mNzDo6bhm_JuzKyVs-7" value="" style="edgeStyle=orthogonalEdgeStyle;rounded=0;orthogonalLoop=1;jettySize=auto;html=1;entryX=0.5;entryY=0;entryDx=0;entryDy=0;" edge="1" parent="1" source="pF8mNzDo6bhm_JuzKyVs-1" target="pF8mNzDo6bhm_JuzKyVs-13">
          <mxGeometry relative="1" as="geometry">
            <mxPoint x="300" y="180" as="targetPoint" />
          </mxGeometry>
        </mxCell>
        <mxCell id="pF8mNzDo6bhm_JuzKyVs-1" value="开始" style="rounded=1;whiteSpace=wrap;html=1;" vertex="1" parent="1">
          <mxGeometry x="240" y="40" width="120" height="60" as="geometry" />
        </mxCell>
        <mxCell id="pF8mNzDo6bhm_JuzKyVs-10" value="&lt;div&gt;内核注册&lt;br&gt;&lt;/div&gt;&lt;div&gt;module_init(init_module_)&lt;/div&gt;" style="rounded=0;whiteSpace=wrap;html=1;" vertex="1" parent="1">
          <mxGeometry x="400" y="250" width="160" height="60" as="geometry" />
        </mxCell>
        <mxCell id="pF8mNzDo6bhm_JuzKyVs-16" value="" style="edgeStyle=orthogonalEdgeStyle;rounded=0;orthogonalLoop=1;jettySize=auto;html=1;" edge="1" parent="1" source="pF8mNzDo6bhm_JuzKyVs-13" target="pF8mNzDo6bhm_JuzKyVs-15">
          <mxGeometry relative="1" as="geometry" />
        </mxCell>
        <mxCell id="pF8mNzDo6bhm_JuzKyVs-13" value="&lt;div&gt;向内核申请空间&lt;/div&gt;&lt;div&gt;kzalloc()&lt;br&gt;&lt;/div&gt;" style="rounded=0;whiteSpace=wrap;html=1;" vertex="1" parent="1">
          <mxGeometry x="220" y="120" width="160" height="60" as="geometry" />
        </mxCell>
        <mxCell id="pF8mNzDo6bhm_JuzKyVs-18" value="" style="edgeStyle=orthogonalEdgeStyle;rounded=0;orthogonalLoop=1;jettySize=auto;html=1;" edge="1" parent="1" source="pF8mNzDo6bhm_JuzKyVs-15">
          <mxGeometry relative="1" as="geometry">
            <mxPoint x="300" y="280" as="targetPoint" />
          </mxGeometry>
        </mxCell>
        <mxCell id="pF8mNzDo6bhm_JuzKyVs-15" value="&lt;div&gt;创建虚拟文件&lt;br&gt;&lt;/div&gt;&lt;div&gt;proc_create（）&lt;br&gt;&lt;/div&gt;" style="rounded=0;whiteSpace=wrap;html=1;" vertex="1" parent="1">
          <mxGeometry x="220" y="200" width="160" height="60" as="geometry" />
        </mxCell>
        <mxCell id="pF8mNzDo6bhm_JuzKyVs-26" value="" style="edgeStyle=orthogonalEdgeStyle;rounded=0;orthogonalLoop=1;jettySize=auto;html=1;" edge="1" parent="1" source="pF8mNzDo6bhm_JuzKyVs-19" target="pF8mNzDo6bhm_JuzKyVs-25">
          <mxGeometry relative="1" as="geometry" />
        </mxCell>
        <mxCell id="pF8mNzDo6bhm_JuzKyVs-19" value="&lt;div&gt;注册USB状态改变通知&lt;br&gt;&lt;/div&gt;&lt;div&gt;usb_register_notify（）&lt;br&gt;&lt;/div&gt;" style="rounded=0;whiteSpace=wrap;html=1;" vertex="1" parent="1">
          <mxGeometry x="220" y="280" width="160" height="60" as="geometry" />
        </mxCell>
        <mxCell id="pF8mNzDo6bhm_JuzKyVs-21" value="&lt;div&gt;内核注销&lt;br&gt;&lt;/div&gt;&lt;div&gt;module_exit(cleanup_module_)&lt;/div&gt;" style="rounded=0;whiteSpace=wrap;html=1;" vertex="1" parent="1">
          <mxGeometry x="400" y="430" width="180" height="60" as="geometry" />
        </mxCell>
        <mxCell id="pF8mNzDo6bhm_JuzKyVs-24" value="" style="shape=curlyBracket;whiteSpace=wrap;html=1;rounded=1;flipH=1;labelPosition=right;verticalLabelPosition=middle;align=left;verticalAlign=middle;" vertex="1" parent="1">
          <mxGeometry x="380" y="150" width="20" height="160" as="geometry" />
        </mxCell>
        <mxCell id="pF8mNzDo6bhm_JuzKyVs-28" value="" style="edgeStyle=orthogonalEdgeStyle;rounded=0;orthogonalLoop=1;jettySize=auto;html=1;" edge="1" parent="1" source="pF8mNzDo6bhm_JuzKyVs-25" target="pF8mNzDo6bhm_JuzKyVs-27">
          <mxGeometry relative="1" as="geometry" />
        </mxCell>
        <mxCell id="pF8mNzDo6bhm_JuzKyVs-25" value="&lt;div&gt;删除虚拟文件&lt;br&gt;&lt;/div&gt;&lt;div&gt;remove_proc_entry()&lt;br&gt;&lt;/div&gt;" style="rounded=0;whiteSpace=wrap;html=1;" vertex="1" parent="1">
          <mxGeometry x="220" y="360" width="160" height="60" as="geometry" />
        </mxCell>
        <mxCell id="pF8mNzDo6bhm_JuzKyVs-30" value="" style="edgeStyle=orthogonalEdgeStyle;rounded=0;orthogonalLoop=1;jettySize=auto;html=1;" edge="1" parent="1" source="pF8mNzDo6bhm_JuzKyVs-27" target="pF8mNzDo6bhm_JuzKyVs-29">
          <mxGeometry relative="1" as="geometry" />
        </mxCell>
        <mxCell id="pF8mNzDo6bhm_JuzKyVs-27" value="&lt;div&gt;删除USB状态改变通知&lt;br&gt;&lt;/div&gt;&lt;div&gt;usb_unregister_notify()&lt;br&gt;&lt;/div&gt;" style="rounded=0;whiteSpace=wrap;html=1;" vertex="1" parent="1">
          <mxGeometry x="220" y="440" width="160" height="60" as="geometry" />
        </mxCell>
        <mxCell id="pF8mNzDo6bhm_JuzKyVs-29" value="&lt;div&gt;释放空间&lt;br&gt;&lt;/div&gt;&lt;div&gt;kfree()&lt;br&gt;&lt;/div&gt;" style="rounded=0;whiteSpace=wrap;html=1;" vertex="1" parent="1">
          <mxGeometry x="220" y="520" width="160" height="60" as="geometry" />
        </mxCell>
        <mxCell id="pF8mNzDo6bhm_JuzKyVs-31" value="" style="shape=curlyBracket;whiteSpace=wrap;html=1;rounded=1;flipH=1;labelPosition=right;verticalLabelPosition=middle;align=left;verticalAlign=middle;" vertex="1" parent="1">
          <mxGeometry x="380" y="390" width="20" height="160" as="geometry" />
        </mxCell>
      </root>
    </mxGraphModel>
  </diagram>
</mxfile>
